
[url=http://www.imdb.com/title/tt0449088/][img]http://img545.imageshack.us/img545/1896/imdb1t.png[/img][/url]
[color=red]StoryLine[/color][color=green]After Elizabeth, Will, and Captain Barbossa rescue Captain Jack Sparrow from the the land of the 

dead, they must face their foes, Davy Jones and Lord Cutler Beckett. Beckett, now with control of Jones' heart, forms a dark alliance 

with him in order to rule the seas and wipe out the last of the Pirates. Now, Jack, Barbossa, Will, Elizabeth, Tia Dalma, and crew must 

call the Pirate Lords from the four corners of the globe, including the infamous Sao Feng, to gathering. The Pirate Lords want to release 

the goddess Calypso, Davy Jones's damned lover, from the trap they sent her to out of fear, in which the Pirate Lords must combine the 9 

pieces that bound her by ritual to undo it and release her in hopes that she will help them fight. With this, all pirates will stand 

together and will make their final stand for freedom against Beckett, Jones, Norrington, the Flying Dutchman, and the entire East India 

Trading Company.[/color]
[img]http://www.filmedge.net/potc3/FanEvent/AT%20WORLD%27S%20END%20Official%20One-Sheet.jpg[/img]
[img]http://img402.imageshack.us/img402/71/dirtyhd.png[/img]
Format                           : Matroska
File size                        : 3.42 GiB
Duration                         : 2h 48mn
Overall bit rate                 : 2 906 Kbps
Encoded date                     : UTC 2012-02-11 16:45:10
Writing application              : mkvmerge v4.4.0 ('Die Wiederkehr') built on Oct 31 2010 21:52:48
Writing library                  : libebml v1.0.0 + libmatroska v1.0.0

Video
ID                               : 1
Format                           : AVC
Format/Info                      : Advanced Video Codec
Format profile                   : High@L4.0
Format settings, CABAC           : Yes
Format settings, ReFrames        : 4 frames
Muxing mode                      : Header stripping
Codec ID                         : V_MPEG4/ISO/AVC
Duration                         : 2h 48mn
Bit rate                         : 2 080 Kbps
Width                            : 1 920 pixels
Height                           : 800 pixels
Display aspect ratio             : 2.40:1
Frame rate                       : 23.976 fps
Color space                      : YUV
Chroma subsampling               : 4:2:0
Bit depth                        : 8 bits
Scan type                        : Progressive
Bits/(Pixel*Frame)               : 0.056
Stream size                      : 2.45 GiB (72%)
Title                            : ^^TAKRIAN^^^DIRTYHD^^
Writing library                  : FASM Quality Enhancer Bitrate Squeezer 1.2 (c)2010 Fachman
Language                         : English

Audio #1
ID                               : 2
Format                           : AC-3
Format/Info                      : Audio Coding 3
Mode extension                   : CM (complete main)
Muxing mode                      : Header stripping
Codec ID                         : A_AC3
Duration                         : 2h 48mn
Bit rate mode                    : Constant
Bit rate                         : 384 Kbps
Channel(s)                       : 6 channels
Channel positions                : Front: L C R, Side: L R, LFE
Sampling rate                    : 48.0 KHz
Bit depth                        : 16 bits
Compression mode                 : Lossy
Stream size                      : 463 MiB (13%)
Title                            : ^^TAKRIAN^^^DIRTYHD^^
Language                         : English

Audio #2
ID                               : 3
Format                           : AC-3
Format/Info                      : Audio Coding 3
Mode extension                   : CM (complete main)
Muxing mode                      : Header stripping
Codec ID                         : A_AC3
Duration                         : 2h 48mn
Bit rate mode                    : Constant
Bit rate                         : 384 Kbps
Channel(s)                       : 6 channels
Channel positions                : Front: L C R, Side: L R, LFE
Sampling rate                    : 48.0 KHz
Bit depth                        : 16 bits
Compression mode                 : Lossy
Stream size                      : 463 MiB (13%)
Title                            : ^^TAKRIAN^^^DIRTYHD^^
Language                         : Hindi


English
[img]http://img703.imageshack.us/img703/22/vlcsnap2012021511h07m05.png[/img]
[img]http://img560.imageshack.us/img560/3010/vlcsnap2012021511h07m11.png[/img]
[img]http://img580.imageshack.us/img580/6560/vlcsnap2012021511h07m17.png
[/img][img]http://img713.imageshack.us/img713/8715/vlcsnap2012021511h07m20.png[/img]


 
http://img832.imageshack.us/img832/8536/submiticon.png[/img][/url]

 
http://img835.imageshack.us/img835/9963/facebookbuttono.png[/img][/url]